<svg id="Layer_1" data-name="Layer 1" xmlns="http://www.w3.org/2000/svg" viewBox="0 0 2540.96 512"><defs><style>.cls-1{fill:#6dc6b0;}.cls-2{fill:none;stroke:#6dc6b0;stroke-miterlimit:10;stroke-width:45px;}</style></defs><path class="cls-1" d="M1034.42,0H977.1V512h57.32c59.93,0,112-52.11,112-112V104.22C1146.46,44.3,1094.35,0,1034.42,0Zm4.33,81.27c10.42,0,19.54,9.12,19.54,19.54s-9.12,19.55-19.54,19.55-19.54-9.12-19.54-19.55A19.18,19.18,0,0,1,1038.75,81.27Zm19.54,100.67c0,10.43-9.12,19.55-19.54,19.55s-19.54-9.12-19.54-19.55,9.12-19.54,19.54-19.54S1058.29,171.52,1058.29,181.94Zm-79.85-40.66c0-10.42,9.12-19.54,19.55-19.54s19.54,9.12,19.54,19.54-9.12,19.54-19.54,19.54A19.19,19.19,0,0,1,978.44,141.28Zm60.31,203.88a43,43,0,1,1,43-43C1081.74,326.92,1062.2,345.16,1038.75,345.16Zm39.9-184.34c-10.43,0-19.55-9.12-19.55-19.54s9.12-19.54,19.55-19.54,19.54,9.12,19.54,19.54S1089.07,160.82,1078.65,160.82Z"/><path class="cls-1" d="M168.06,1.3H112C52.11,1.3,0,45.6,0,105.53V400c0,59.93,52.11,112,112,112h57.32V1.3ZM108.13,84.88a43,43,0,1,1-43,43A43.38,43.38,0,0,1,108.13,84.88Zm19.54,164a19.19,19.19,0,0,1-19.54,19.54c-10.42,0-19.54-9.12-19.54-19.54a19.18,19.18,0,0,1,19.54-19.54C118.55,229.34,127.67,238.46,127.67,248.88ZM67.36,309.55A19.19,19.19,0,0,1,47.82,290c0-10.43,9.12-19.55,19.54-19.55S86.91,279.58,86.91,290,77.79,309.55,67.36,309.55ZM88.59,330a19.19,19.19,0,0,1,19.54-19.55c10.42,0,19.54,9.12,19.54,19.55s-9.12,19.54-19.54,19.54S88.59,340.44,88.59,330Zm59.93-20.47A19.18,19.18,0,0,1,129,290c0-10.43,9.12-19.55,19.54-19.55s19.54,9.12,19.54,19.55A19.19,19.19,0,0,1,148.52,309.55Z"/><path class="cls-1" d="M169.36,0V512H977.1V0ZM922.64,457.28H221.83V53.41H924.07V457.28Z"/><circle class="cls-2" cx="2285.96" cy="256" r="232.5"/><rect class="cls-1" x="2048.46" y="233.5" width="475" height="45"/><rect class="cls-1" x="2080.96" y="119.5" width="410" height="45"/><rect class="cls-1" x="2080.96" y="347.5" width="410" height="45"/><ellipse class="cls-2" cx="2285.96" cy="257.33" rx="96.35" ry="221.77"/><path class="cls-1" d="M1491.15,181.19q5.4-23.5,23.47-41.75H1427.7l-22.62,22.62,22.39,22.38h63.34A14,14,0,0,1,1491.15,181.19Z"/><path class="cls-1" d="M1633.33,164.35q-13.27-11.83-35.74-11.83-21.67,0-36.3,12.38a54.71,54.71,0,0,0-14.21,19.54h98.6Q1643.12,173.13,1633.33,164.35Z"/><path class="cls-1" d="M1806.46,184.44a22.5,22.5,0,0,0,22.5-22.5h0a22.5,22.5,0,0,0-22.5-22.5H1678q20.07,20.06,23.4,45Z"/><path class="cls-1" d="M1765.34,327.44H1616.89a13.57,13.57,0,0,1-10.68,5.19h-24.83a13.55,13.55,0,0,1-10.68-5.19H1386.46a22.51,22.51,0,0,0-22.5,22.5h0a22.5,22.5,0,0,0,22.5,22.5H1568v-6.53a13.65,13.65,0,0,1,13.65-13.64h29.61a13.65,13.65,0,0,1,13.65,13.64v6.53h140.44l22.5-22.5Z"/><path class="cls-1" d="M1357.42,146.21a156.68,156.68,0,0,1,29-6.77h41.24l35.79-35.79a22.51,22.51,0,0,0,0-31.82h0a22.51,22.51,0,0,0-31.82,0l-74.25,74.25a22.47,22.47,0,0,0-6.59,16,22.44,22.44,0,0,1,6.59-15.85Z"/><path class="cls-1" d="M1379.59,140.52a22.4,22.4,0,0,1,9.65,5.69l15.84,15.85,22.62-22.62h-41.24A22.35,22.35,0,0,0,1379.59,140.52Z"/><path class="cls-1" d="M1380,183.48a22.47,22.47,0,0,1-22.54-5.58h0a22.44,22.44,0,0,1-6.59-15.84,22.45,22.45,0,0,0,6.59,16l74.25,74.25a22.49,22.49,0,0,0,31.82,0h0a22.51,22.51,0,0,0,0-31.82l-36-36h-41A22.17,22.17,0,0,1,1380,183.48Z"/><path class="cls-1" d="M1389.24,177.9a22.35,22.35,0,0,1-9.28,5.58,22.17,22.17,0,0,0,6.5,1h41l-22.39-22.38Z"/><path class="cls-1" d="M1357.42,177.9a22.47,22.47,0,0,0,22.54,5.58,22.51,22.51,0,0,1-16-21.54h0a22.5,22.5,0,0,1,15.63-21.42,22.49,22.49,0,0,0-22.17,5.69h0a22.34,22.34,0,0,0,0,31.69Z"/><path class="cls-1" d="M1379.59,140.52A22.5,22.5,0,0,0,1364,161.94h0a15,15,0,0,0,25.28,16l15.84-15.84-15.84-15.85A22.4,22.4,0,0,0,1379.59,140.52Z"/><path class="cls-1" d="M1835.51,365.79h0a153.47,153.47,0,0,1-29,6.65h-41.12l-35.9,35.91a22.49,22.49,0,0,0,0,31.82h0a22.51,22.51,0,0,0,31.82,0l74.25-74.25a22.42,22.42,0,0,0,6.58-16A22.43,22.43,0,0,1,1835.51,365.79Z"/><path class="cls-1" d="M1813.15,371.43a22.32,22.32,0,0,1-9.46-5.64l-15.85-15.85-22.5,22.5h41.12A22.43,22.43,0,0,0,1813.15,371.43Z"/><path class="cls-1" d="M1813.15,328.45a22.52,22.52,0,0,1,22.36,5.65h0a22.43,22.43,0,0,1,6.58,15.84,22.39,22.39,0,0,0-6.58-16l-74.25-74.25a22.49,22.49,0,0,0-31.82,0h0a22.49,22.49,0,0,0,0,31.82l35.9,35.9h41.12A22.76,22.76,0,0,1,1813.15,328.45Z"/><path class="cls-1" d="M1803.69,334.1a22.35,22.35,0,0,1,9.46-5.65,22.76,22.76,0,0,0-6.69-1h-41.12l22.5,22.5Z"/><path class="cls-1" d="M1835.51,334.1a22.52,22.52,0,0,0-22.36-5.65A22.51,22.51,0,0,1,1829,349.94h0a22.5,22.5,0,0,1-15.81,21.49,22.49,22.49,0,0,0,22.36-5.64h0a22.37,22.37,0,0,0,0-31.69Z"/><path class="cls-1" d="M1829,349.94h0a15,15,0,0,0-25.27-15.84l-15.85,15.84,15.85,15.85A15,15,0,0,0,1829,349.94Z"/><path class="cls-1" d="M1502.76,197.79l26.77,3.33a13.59,13.59,0,0,0,14.59-9.12,79.82,79.82,0,0,1,3-7.56h-56.27A13.65,13.65,0,0,0,1502.76,197.79Z"/><path class="cls-1" d="M1673.16,134.82q-29-25.6-78-25.65c-31.12,0-56.15,8.44-75.3,25.31q-2.74,2.43-5.25,5H1678C1676.48,137.88,1674.87,136.34,1673.16,134.82Z"/><path class="cls-1" d="M1619.83,319.7q.72-13.35,3.75-19.7,4.37-9.12,22.4-24.13,34.86-28.94,45.5-45.77a65.89,65.89,0,0,0,10.65-35.61,75.61,75.61,0,0,0-.69-10.05h-55.76a37.85,37.85,0,0,1,.93,8.39,35.07,35.07,0,0,1-7.54,21.85c-3.18,4.22-13.14,13.07-29.73,26.55s-27.72,25.65-33.26,36.51-8.29,24.54-8.29,41.27v.05a13.48,13.48,0,0,0,2.91,8.38h46.19A13.6,13.6,0,0,0,1619.83,319.7Z"/><path class="cls-1" d="M1568,395.53a13.65,13.65,0,0,0,13.65,13.64h29.61a13.65,13.65,0,0,0,13.65-13.64V372.44H1568Z"/></svg>